<svg width="28" height="28" viewBox="0 0 28 28" fill="none" xmlns="http://www.w3.org/2000/svg">
<g filter="url(#filter0_d_1_613)">
<path d="M14 0C8.47715 0 4 4.47715 4 10C4 15.5228 8.47715 20 14 20C19.5228 20 24 15.5228 24 10C23.9936 4.47982 19.5202 0.00642897 14 0Z" fill="#5243C2" fill-opacity="0.15"/>
<path d="M19.772 6.83423L14.0679 14.5751C13.9318 14.7556 13.729 14.8738 13.5049 14.9033C13.2808 14.9327 13.0543 14.8709 12.8762 14.7317L8.80286 11.4751C8.44341 11.1874 8.38521 10.6628 8.67286 10.3034C8.9605 9.94395 9.48508 9.88575 9.84452 10.1734L13.2412 12.8909L18.4304 5.84839C18.6005 5.59305 18.8972 5.45188 19.2027 5.48093C19.5082 5.50997 19.773 5.70454 19.8919 5.98737C20.0109 6.27021 19.9649 6.59555 19.772 6.83423Z" fill="#BB6BD9"/>
</g>
<defs>
<filter id="filter0_d_1_613" x="0" y="0" width="28" height="28" filterUnits="userSpaceOnUse" color-interpolation-filters="sRGB">
<feFlood flood-opacity="0" result="BackgroundImageFix"/>
<feColorMatrix in="SourceAlpha" type="matrix" values="0 0 0 0 0 0 0 0 0 0 0 0 0 0 0 0 0 0 127 0" result="hardAlpha"/>
<feOffset dy="4"/>
<feGaussianBlur stdDeviation="2"/>
<feComposite in2="hardAlpha" operator="out"/>
<feColorMatrix type="matrix" values="0 0 0 0 0 0 0 0 0 0 0 0 0 0 0 0 0 0 0.25 0"/>
<feBlend mode="normal" in2="BackgroundImageFix" result="effect1_dropShadow_1_613"/>
<feBlend mode="normal" in="SourceGraphic" in2="effect1_dropShadow_1_613" result="shape"/>
</filter>
</defs>
</svg>
